<svg width="12.080566" height="22.677734" viewBox="0 0 12.0806 22.6777" fill="none" xmlns="http://www.w3.org/2000/svg" xmlns:xlink="http://www.w3.org/1999/xlink">
	<desc>
			Created with Pixso.
	</desc>
	<defs/>
	<path id="Vector" d="M2.59521 21.6123L2.59521 11.7559L1.11426 11.7559C0.664429 11.7559 0.300049 11.4121 0.300049 10.9902L0.300049 7.86963C0.300049 7.44922 0.66626 7.10498 1.11426 7.10498L2.59521 7.10498L2.59521 4.5957C2.59521 2.22314 4.64209 0.299805 7.16589 0.299805L10.9663 0.299805C11.4161 0.299805 11.7805 0.642578 11.7805 1.06543L11.7805 4.18506C11.7805 4.60791 11.4161 4.95068 10.9663 4.95068L8.71704 4.95068C8.46057 4.95068 8.24915 5.14941 8.24915 5.39062L8.24915 7.10645L10.9169 7.10498C11.3667 7.13428 11.7311 7.41943 11.7311 7.86963C11.6519 8.92676 11.5421 9.99463 11.4468 11.0537C11.4116 11.4487 11.0581 11.7559 10.6361 11.7559L8.24915 11.7559L8.24915 21.6123C8.24915 22.0327 7.88391 22.377 7.43579 22.377L3.40955 22.3779C2.96057 22.3779 2.59521 22.0342 2.59521 21.6123ZM3.65869 21.3799L7.18567 21.3799L7.18567 10.7559L10.4076 10.7559L10.646 8.10205L7.18567 8.10205L7.18567 5.39062C7.18567 4.5957 7.87122 3.95117 8.71704 3.95117L10.717 3.95117L10.717 1.29932L7.16589 1.29932C5.22876 1.29932 3.65869 2.77539 3.65869 4.5957L3.65869 8.10352L1.36353 8.10352L1.36353 10.7559L3.65869 10.7559L3.65869 21.3799Z" fill="#B49463" fill-opacity="1.000000" fill-rule="nonzero"/>
	<path id="Vector" d="M2.59521 12.0557L2.59521 11.7559L1.11426 11.7559C0.664429 11.7559 0.300049 11.4121 0.300049 10.9902L0.300049 7.86963C0.300049 7.44922 0.66626 7.10498 1.11426 7.10498L2.59521 7.10498L2.59521 4.5957C2.59521 2.22314 4.64209 0.299805 7.16589 0.299805L10.9663 0.299805C11.4161 0.299805 11.7805 0.642578 11.7805 1.06543L11.7805 4.18506C11.7805 4.60791 11.4161 4.95068 10.9663 4.95068L8.71704 4.95068C8.46057 4.95068 8.24915 5.14941 8.24915 5.39062L8.24915 7.10645L8.54919 7.10645L10.9169 7.10498C11.3667 7.13428 11.7311 7.41943 11.7311 7.86963C11.6519 8.92676 11.5421 9.99463 11.4468 11.0537C11.4116 11.4487 11.0581 11.7559 10.6361 11.7559L8.24915 11.7559L8.24915 21.6123C8.24915 22.0327 7.88391 22.377 7.43579 22.377L3.40955 22.3779C2.96057 22.3779 2.59521 22.0342 2.59521 21.6123L2.59521 12.0557ZM8.54919 12.0557L8.54919 21.6123Q8.54919 21.7168 8.52856 21.8169Q8.50598 21.9272 8.4585 22.0327Q8.42688 22.1025 8.38574 22.167Q8.31494 22.2778 8.21606 22.3706Q8.15076 22.4321 8.07751 22.4819Q7.97778 22.5493 7.86316 22.5952Q7.77539 22.6304 7.68433 22.6504Q7.56299 22.6768 7.43579 22.6768L3.40955 22.6777Q3.27954 22.6777 3.15576 22.6499Q3.06726 22.6304 2.98181 22.5962Q2.86609 22.5503 2.76538 22.4814Q2.69299 22.4326 2.62854 22.3721Q2.53027 22.2793 2.45959 22.1694Q2.41797 22.1045 2.38586 22.0332Q2.33936 21.9302 2.31677 21.8218Q2.29529 21.7192 2.29529 21.6123L2.29529 12.0557L1.11426 12.0557Q0.982788 12.0557 0.857788 12.0273Q0.770508 12.0078 0.686279 11.9741Q0.569946 11.9277 0.468994 11.8589Q0.397095 11.8101 0.332886 11.75Q0.235229 11.6577 0.164917 11.5483Q0.122803 11.4829 0.0904541 11.4111Q0.0443115 11.3086 0.0217285 11.2012Q0 11.0981 0 10.9902L0 7.86963Q0 7.76562 0.0205078 7.66553Q0.0430908 7.55469 0.0909424 7.44922Q0.122314 7.37939 0.162964 7.31592Q0.234253 7.2041 0.33374 7.11084Q0.398926 7.0498 0.472168 7Q0.572144 6.93213 0.68689 6.88672Q0.775391 6.85107 0.867188 6.83105Q0.987915 6.80469 1.11426 6.80469L2.29529 6.80469L2.29529 4.5957Q2.29529 4.13379 2.38855 3.69238Q2.48499 3.23584 2.68091 2.80029Q2.8064 2.52148 2.96655 2.26465Q3.28076 1.76025 3.72876 1.33936Q3.99097 1.09277 4.28333 0.889648Q4.74255 0.570801 5.27612 0.358398Q5.62415 0.220215 5.98462 0.135254Q6.55933 0 7.16589 0L10.9663 0Q11.0986 0 11.2245 0.0283203Q11.3109 0.0478516 11.3942 0.0810547Q11.5111 0.127441 11.6127 0.196777Q11.684 0.245605 11.7476 0.305176Q11.8451 0.396973 11.9153 0.505859Q11.9576 0.571777 11.9902 0.644043Q12.0358 0.745605 12.0583 0.851562Q12.0806 0.956055 12.0806 1.06543L12.0806 4.18506Q12.0806 4.29443 12.0583 4.39893Q12.0358 4.50488 11.9902 4.60645Q11.9576 4.67871 11.9153 4.74463Q11.845 4.85352 11.7476 4.94531Q11.684 5.00488 11.6127 5.05371Q11.5111 5.12305 11.3942 5.16943Q11.3109 5.20264 11.2245 5.22217Q11.0986 5.25049 10.9663 5.25049L8.71704 5.25049Q8.67419 5.25049 8.63904 5.26709Q8.61377 5.27881 8.59241 5.29883Q8.56079 5.32861 8.55225 5.36377Q8.54919 5.37695 8.54919 5.39062L8.54919 6.80615L10.9266 6.80469L10.9365 6.80566Q11.2766 6.82764 11.5325 6.98633Q11.6169 7.03857 11.6921 7.10547Q11.7961 7.19824 11.8694 7.31055Q11.9093 7.37256 11.9402 7.43994Q11.9626 7.48926 11.9796 7.54053Q12.0311 7.69678 12.0311 7.86963L12.0311 7.88086L12.0303 7.8916Q11.9757 8.62012 11.8381 10.0825Q11.7754 10.749 11.7456 11.0806Q11.7374 11.1719 11.7137 11.2593Q11.684 11.3682 11.6298 11.4707Q11.5962 11.5337 11.5548 11.5918Q11.4812 11.6943 11.3831 11.7798Q11.2338 11.9092 11.0604 11.9775Q10.8638 12.0557 10.6361 12.0557L8.54919 12.0557ZM3.65869 11.0562L3.65869 21.3799L7.18567 21.3799L7.18567 10.7559L10.4076 10.7559L10.619 8.40186L10.646 8.10205L7.18567 8.10205L7.18567 5.39062C7.18567 4.5957 7.87122 3.95117 8.71704 3.95117L10.717 3.95117L10.717 1.29932L7.16589 1.29932C5.22876 1.29932 3.65869 2.77539 3.65869 4.5957L3.65869 8.10352L1.36353 8.10352L1.36353 10.7559L3.65869 10.7559L3.65869 11.0562ZM1.66357 10.4561L3.95874 10.4561L3.95874 21.0796L6.88562 21.0796L6.88562 10.4561L10.1333 10.4561L10.3179 8.40186L6.88562 8.40186L6.88562 5.39062Q6.88562 5.21436 6.92139 5.04541Q6.95813 4.87207 7.03247 4.70703Q7.08264 4.59521 7.14746 4.49316Q7.2644 4.30859 7.42871 4.15381Q7.5304 4.05859 7.64404 3.97998Q7.81372 3.86328 8.01013 3.78516Q8.14404 3.73193 8.28296 3.69971Q8.49426 3.65088 8.71704 3.65088L10.4171 3.65088L10.4171 1.59961L7.16589 1.59961Q6.75 1.59961 6.3573 1.69482Q6.13049 1.75049 5.9115 1.8374Q5.54871 1.98145 5.2384 2.2002Q5.05579 2.3291 4.89136 2.4834Q4.5863 2.77002 4.37671 3.11475Q4.28271 3.26953 4.20789 3.43555Q4.08093 3.71777 4.01868 4.01367Q3.95874 4.29834 3.95874 4.5957L3.95874 8.40381L1.66357 8.40381L1.66357 10.4561Z" fill="#B49463" fill-opacity="1.000000" fill-rule="evenodd"/>
</svg>
