<svg width="18.262329" height="18.262207" viewBox="0 0 18.2623 18.2622" fill="none" xmlns="http://www.w3.org/2000/svg" xmlns:xlink="http://www.w3.org/1999/xlink">
	<desc>
			Created with Pixso.
	</desc>
	<defs/>
	<path id="Vector" d="M2.75317 0.300293C1.39893 0.301758 0.301758 1.39893 0.300049 2.75293L0.300049 15.5093C0.301758 16.8638 1.39893 17.9609 2.75317 17.9624L15.5093 17.9624C16.8635 17.9609 17.9607 16.8638 17.9624 15.5093L17.9624 2.75293C17.9607 1.39893 16.8635 0.301758 15.5093 0.300293L2.75317 0.300293ZM16.9812 15.5093C16.9812 16.3223 16.3221 16.981 15.5093 16.981L2.75317 16.981C1.94031 16.981 1.28125 16.3223 1.28125 15.5093L1.28125 2.75293C1.28125 1.94043 1.94031 1.28125 2.75317 1.28125L15.5093 1.28125C16.3221 1.28125 16.9812 1.94043 16.9812 2.75293L16.9812 15.5093ZM9.13123 4.2251C6.42151 4.2251 4.22498 6.42139 4.22498 9.13135C4.22498 11.8408 6.42151 14.0376 9.13123 14.0376C11.8409 14.0376 14.0375 11.8408 14.0375 9.13135C14.0345 6.42285 11.8397 4.22803 9.13123 4.2251ZM9.13123 13.0562C6.96338 13.0562 5.2063 11.2988 5.2063 9.13135C5.2063 6.96338 6.96338 5.20605 9.13123 5.20605C11.299 5.20605 13.0562 6.96338 13.0562 9.13135C13.0538 11.2979 11.2979 13.0537 9.13123 13.0562ZM13.0562 3.73438C13.0562 2.92139 13.7152 2.2627 14.5281 2.2627C15.3408 2.2627 15.9999 2.92139 15.9999 3.73438C15.9999 4.54736 15.3408 5.20605 14.5281 5.20605C13.7152 5.20605 13.0562 4.54736 13.0562 3.73438ZM14.0375 3.73438C14.0375 4.00537 14.2571 4.2251 14.5281 4.2251C14.799 4.2251 15.0187 4.00537 15.0187 3.73438C15.0187 3.46338 14.799 3.24365 14.5281 3.24365C14.2571 3.24365 14.0375 3.46338 14.0375 3.73438Z" fill="#B49463" fill-opacity="1.000000" fill-rule="evenodd"/>
	<path id="Vector" d="M15.5096 0L2.75281 0Q2.44592 0.000488281 2.15356 0.065918Q1.91272 0.119629 1.68176 0.217285Q1.44824 0.316406 1.24011 0.453613Q1.00793 0.606445 0.807251 0.807129Q0.606567 1.00781 0.453491 1.24023Q0.316284 1.44824 0.217407 1.68164Q0.119507 1.9126 0.0656738 2.15381Q0.000488281 2.4458 0 2.75293L0 15.5093Q0.000488281 15.8188 0.0667725 16.1133Q0.120483 16.3521 0.217407 16.5806Q0.316284 16.814 0.453613 17.0225Q0.606567 17.2544 0.807251 17.4551Q1.00793 17.6558 1.23999 17.8091Q1.44824 17.9463 1.68176 18.0449Q1.91272 18.1431 2.15369 18.1968Q2.44592 18.2622 2.75281 18.2622L15.5093 18.2622Q15.8186 18.2622 16.1132 18.1958Q16.3518 18.1421 16.5807 18.0449Q16.8142 17.9463 17.0225 17.8091Q17.2545 17.6558 17.4552 17.4551Q17.6559 17.2544 17.809 17.0225Q17.9462 16.814 18.045 16.5806Q18.1429 16.3496 18.1967 16.1089Q18.262 15.8164 18.2623 15.5098L18.2623 2.75293Q18.262 2.44385 18.1957 2.14893Q18.142 1.91064 18.045 1.68164Q17.9462 1.44824 17.809 1.24023Q17.6559 1.00781 17.4552 0.807129Q17.2545 0.606445 17.0223 0.453613Q16.8142 0.316406 16.5807 0.217285Q16.3497 0.119629 16.1089 0.065918Q15.8165 0.000488281 15.5096 0ZM17.9624 2.75293C17.9607 1.39893 16.8635 0.301758 15.5093 0.300293L2.75317 0.300293C1.39893 0.301758 0.301758 1.39893 0.300049 2.75293L0.300049 15.5093C0.301758 16.8638 1.39893 17.9609 2.75317 17.9624L15.5093 17.9624C16.8635 17.9609 17.9607 16.8638 17.9624 15.5093L17.9624 2.75293ZM16.9812 15.5093C16.9812 16.3223 16.3221 16.981 15.5093 16.981L2.75317 16.981C1.94031 16.981 1.28125 16.3223 1.28125 15.5093L1.28125 2.75293C1.28125 1.94043 1.94031 1.28125 2.75317 1.28125L15.5093 1.28125C16.3221 1.28125 16.9812 1.94043 16.9812 2.75293L16.9812 15.5093ZM15.7729 16.6519Q15.6445 16.6812 15.5093 16.6812L2.75317 16.6812Q2.61792 16.6812 2.4895 16.6519Q2.39136 16.6289 2.29712 16.5894Q2.2002 16.5483 2.11353 16.4917Q2.01208 16.4253 1.92456 16.3379Q1.83704 16.2505 1.77087 16.1489Q1.71423 16.062 1.67322 15.9653Q1.63342 15.8711 1.61084 15.7729Q1.5813 15.6445 1.5813 15.5093L1.5813 2.75293Q1.5813 2.61816 1.61084 2.48975Q1.63342 2.39111 1.67322 2.29736Q1.71423 2.2002 1.77087 2.11328Q1.83704 2.01221 1.92456 1.92432Q2.01208 1.83691 2.1134 1.771Q2.2002 1.71436 2.29712 1.67334Q2.39136 1.6333 2.48962 1.61084Q2.61804 1.58154 2.75317 1.58154L15.5093 1.58154Q15.6444 1.58154 15.7728 1.61084Q15.8711 1.6333 15.9653 1.67334Q16.0623 1.71436 16.149 1.771Q16.2504 1.83691 16.3379 1.92432Q16.4254 2.01221 16.4916 2.11328Q16.5482 2.2002 16.5891 2.29736Q16.629 2.3916 16.6516 2.48975Q16.6812 2.61816 16.6812 2.75293L16.6812 15.5093Q16.6812 15.6445 16.6516 15.7729Q16.629 15.8711 16.5891 15.9653Q16.5482 16.062 16.4916 16.1489Q16.4254 16.2505 16.3379 16.3379Q16.2504 16.4253 16.1489 16.4917Q16.0623 16.5483 15.9653 16.5894Q15.8711 16.6289 15.7729 16.6519ZM4.04907 7.99268Q3.92505 8.54785 3.92505 9.13135Q3.92505 9.71436 4.04907 10.27Q4.15039 10.7231 4.33423 11.1577Q4.52039 11.5981 4.77869 11.9907Q5.06873 12.4316 5.44983 12.8125Q5.83093 13.1938 6.27197 13.4839Q6.66455 13.7422 7.10461 13.9282Q7.53943 14.1123 7.99268 14.2134Q8.5481 14.3374 9.13123 14.3374Q9.71436 14.3374 10.2699 14.2134Q10.723 14.1123 11.1578 13.9282Q11.5979 13.7422 11.9905 13.4839Q12.4315 13.1938 12.8126 12.8125Q13.1937 12.4316 13.4838 11.9907Q13.7421 11.5977 13.9282 11.1577Q14.1121 10.7231 14.2134 10.27Q14.3374 9.71436 14.3374 9.13135Q14.3368 8.54639 14.2115 7.98926Q14.11 7.53809 13.9268 7.10547Q13.7404 6.66553 13.4819 6.27295Q13.1919 5.83203 12.811 5.45117Q12.4302 5.07031 11.9895 4.78027Q11.597 4.52197 11.1571 4.33594Q10.7224 4.15186 10.2693 4.05029Q9.71423 3.92578 9.13159 3.9248Q8.54614 3.9248 7.98889 4.0498Q7.5376 4.15137 7.10461 4.33447Q6.66455 4.52051 6.27197 4.77881Q5.83093 5.06885 5.44983 5.44971Q5.06873 5.83105 4.77856 6.27197Q4.52039 6.66455 4.33423 7.10449Q4.15039 7.53955 4.04907 7.99268ZM4.22498 9.13135C4.22498 6.42139 6.42151 4.2251 9.13123 4.2251C11.8397 4.22803 14.0345 6.42285 14.0375 9.13135C14.0375 11.8408 11.8409 14.0376 9.13123 14.0376C6.42151 14.0376 4.22498 11.8408 4.22498 9.13135ZM5.2063 9.13135C5.2063 11.2988 6.96338 13.0562 9.13123 13.0562C11.2979 13.0537 13.0538 11.2979 13.0562 9.13135C13.0562 6.96338 11.299 5.20605 9.13123 5.20605C6.96338 5.20605 5.2063 6.96338 5.2063 9.13135ZM5.59509 9.93506Q5.50623 9.54297 5.50623 9.13135Q5.50623 8.71924 5.59509 8.32764Q5.66528 8.01758 5.79102 7.72021Q5.91943 7.4165 6.09717 7.14551Q6.30029 6.83545 6.56799 6.56787Q6.83557 6.30029 7.14539 6.09717Q7.41663 5.91943 7.72021 5.79102Q8.01758 5.66504 8.32739 5.59521Q8.71924 5.50635 9.13123 5.50635Q9.54321 5.50635 9.93506 5.59521Q10.2449 5.66504 10.5421 5.79102Q10.8457 5.91943 11.1169 6.09717Q11.4269 6.30029 11.6945 6.56787Q11.9622 6.83545 12.1653 7.14551Q12.343 7.4165 12.4714 7.72021Q12.5972 8.01758 12.6674 8.32764Q12.7562 8.71924 12.7562 9.13135Q12.7557 9.54004 12.6678 9.9292Q12.5973 10.2417 12.4703 10.541Q12.3418 10.8447 12.1641 11.1157Q11.9608 11.4253 11.6931 11.6934Q11.4254 11.9609 11.1155 12.1641Q10.8445 12.3418 10.5411 12.4702Q10.2434 12.5967 9.93311 12.667Q9.54199 12.7559 9.13086 12.7563Q8.72119 12.7563 8.3313 12.6685Q8.01953 12.5981 7.72021 12.4717Q7.41663 12.3433 7.14539 12.165Q6.83557 11.9619 6.56799 11.6943Q6.30029 11.4268 6.09717 11.1172Q5.91943 10.8457 5.79102 10.542Q5.66528 10.2451 5.59509 9.93506ZM12.7975 3.35156Q12.7562 3.53857 12.7562 3.73438Q12.7562 3.93066 12.7975 4.11719Q12.832 4.27393 12.8955 4.42432Q12.9594 4.57471 13.048 4.70947Q13.1462 4.8584 13.2751 4.9873Q13.4041 5.11621 13.5532 5.21436Q13.6875 5.30322 13.8383 5.3667Q13.9885 5.43066 14.1451 5.46484Q14.332 5.50635 14.5281 5.50635Q14.7241 5.50635 14.911 5.46484Q15.0676 5.43066 15.2178 5.3667Q15.3685 5.30322 15.5029 5.21436Q15.652 5.11621 15.7809 4.9873Q15.9098 4.8584 16.0082 4.70947Q16.0968 4.57471 16.1605 4.42432Q16.2241 4.27393 16.2587 4.11719Q16.2999 3.93066 16.2999 3.73438Q16.2999 3.53857 16.2587 3.35156Q16.2241 3.19482 16.1605 3.04443Q16.0968 2.89404 16.0082 2.75928Q15.9098 2.61035 15.7809 2.48145Q15.652 2.35254 15.5029 2.25439Q15.3687 2.16553 15.2178 2.10205Q15.0676 2.03857 14.911 2.00391Q14.7241 1.9624 14.5281 1.9624Q14.332 1.9624 14.145 2.00391Q13.9885 2.03857 13.8383 2.10205Q13.6875 2.16553 13.5531 2.25439Q13.4041 2.35254 13.2751 2.48145Q13.1462 2.61035 13.048 2.75928Q12.9594 2.89404 12.8955 3.04443Q12.832 3.19482 12.7975 3.35156ZM14.5281 2.2627C13.7152 2.2627 13.0562 2.92139 13.0562 3.73438C13.0562 4.54736 13.7152 5.20605 14.5281 5.20605C15.3408 5.20605 15.9999 4.54736 15.9999 3.73438C15.9999 2.92139 15.3408 2.2627 14.5281 2.2627ZM14.5281 4.2251C14.2571 4.2251 14.0375 4.00537 14.0375 3.73438C14.0375 3.46338 14.2571 3.24365 14.5281 3.24365C14.799 3.24365 15.0187 3.46338 15.0187 3.73438C15.0187 4.00537 14.799 4.2251 14.5281 4.2251ZM14.3513 3.80762Q14.3374 3.77393 14.3374 3.73438Q14.3374 3.69482 14.3513 3.66113Q14.3654 3.62744 14.3933 3.59961Q14.4213 3.57178 14.455 3.55762Q14.4886 3.54395 14.5281 3.54395Q14.5675 3.54395 14.6012 3.55762Q14.6349 3.57178 14.6628 3.59961Q14.6908 3.62744 14.7047 3.66113Q14.7186 3.69482 14.7186 3.73438Q14.7186 3.77393 14.7047 3.80762Q14.6908 3.84131 14.6628 3.86914Q14.6349 3.89697 14.6012 3.91113Q14.5675 3.9248 14.5281 3.9248Q14.4886 3.9248 14.455 3.91113Q14.4213 3.89697 14.3933 3.86914Q14.3654 3.84131 14.3513 3.80762Z" fill="#B49463" fill-opacity="1.000000" fill-rule="evenodd"/>
</svg>
