<svg width="189.706055" height="38.000000" viewBox="0 0 189.706 38" fill="none" xmlns="http://www.w3.org/2000/svg" xmlns:xlink="http://www.w3.org/1999/xlink">
	<desc>
			Created with Pixso.
	</desc>
	<defs>
		<clipPath id="clip375_2130">
			<rect id="Isolation_Mode" width="45.000000" height="38.000000" fill="white" fill-opacity="0"/>
		</clipPath>
	</defs>
	<rect id="Isolation_Mode" width="45.000000" height="38.000000" fill="#FFFFFF" fill-opacity="0"/>
	<g clip-path="url(#clip375_2130)">
		<path id="Vector" d="M35.8047 23.7019C35.9617 23.7202 36.1057 23.6887 36.2419 23.6049C37.9746 22.553 39.5869 21.349 40.9167 19.8066C41.6653 18.941 42.2622 17.9626 42.4924 16.8295C42.7148 15.7305 42.4426 14.6996 41.7778 13.7867C41.0581 12.7979 40.1313 12.053 39.0505 11.4968C38.8357 11.3867 38.7231 11.2555 38.7415 10.988C38.7678 10.5316 38.7495 10.0725 38.7468 9.61353C38.7441 9.1991 38.8018 9.14917 39.1943 9.30664C39.6367 9.48499 40.0818 9.66333 40.511 9.87317C41.6758 10.4371 42.7673 11.1191 43.6233 12.108C44.3691 12.9684 44.8743 13.9337 44.9739 15.1219C45.1807 17.5377 44.1912 19.4395 42.5999 21.1234C41.2778 22.5189 39.7493 23.6415 38.1028 24.6226C37.1553 25.1865 36.1738 25.677 35.2053 26.1964C34.5352 26.4325 33.873 26.6842 33.2554 27.041C33.0408 27.1093 32.8259 27.1748 32.6167 27.2482C31.8391 27.521 31.075 27.8331 30.2871 28.0667C29.1118 28.4128 27.9365 28.7617 26.7351 29.0135C26.3032 29.1027 25.8818 29.2312 25.4551 29.3414C24.9631 29.3362 24.4841 29.3807 24.0339 29.6011C23.4553 29.588 22.8979 29.7454 22.3271 29.8057C21.521 29.8896 20.7253 30.0392 19.9114 30.068C19.5789 30.0785 19.2385 30.0653 18.9192 30.186C18.4873 30.2018 18.053 30.1257 17.6289 30.249C17.4771 30.2411 17.3252 30.2253 17.1733 30.228C15.7024 30.249 14.2366 30.27 12.7656 30.1388C12.1975 30.0863 11.6321 29.9709 11.0564 29.9945C10.1768 29.7637 9.27637 29.6588 8.38379 29.5171C8.23462 29.4253 8.07227 29.3677 7.90234 29.3257C6.20874 28.9191 4.58325 28.3341 3.11743 27.3741C2.00244 26.6449 1.01831 25.7767 0.476318 24.5071C0.35083 24.2134 0.251221 23.9143 0.259033 23.5917C0.264404 23.3766 0.188477 23.214 0.00512695 23.0985C0 22.2094 0 21.3123 0 20.4178C0.0314941 20.5175 0.0627441 20.6172 0.0969238 20.7142C0.193604 20.6932 0.23291 20.6302 0.246094 20.5516C0.489502 19.1849 1.28784 18.1252 2.16724 17.1233C3.0127 16.1606 3.96021 15.295 5.01001 14.5605C5.53345 14.1934 6.0542 13.8025 6.64844 13.5402C6.86035 13.4458 6.99927 13.2175 7.2583 13.1992C7.31055 13.7474 7.30029 14.2957 7.26367 14.8439C7.03052 14.9121 6.83179 15.0405 6.63525 15.1796C5.42871 16.0294 4.31104 16.9712 3.36084 18.12C2.58618 19.0564 1.99463 20.069 1.80615 21.2755C1.66479 22.1805 1.79297 23.0671 2.32178 23.833C2.98657 24.7931 3.83716 25.5642 4.85034 26.1597C5.8291 26.7341 6.87085 27.1538 7.92847 27.5447C7.94922 27.5525 7.96777 27.563 7.98853 27.5682C8.77124 27.7598 9.55396 27.9539 10.3364 28.1427C10.4202 28.1637 10.5144 28.161 10.551 28.0535C10.7344 28.1007 10.8992 28.1978 11.0955 28.224C11.9697 28.3446 12.8467 28.4207 13.7236 28.5046C15.2915 28.6567 16.854 28.641 18.4194 28.5334C18.7805 28.5021 19.1602 28.6542 19.5002 28.4181C19.6365 28.5099 19.7961 28.4968 19.9402 28.4731C20.7515 28.3394 21.563 28.2266 22.3796 28.1348C22.7512 28.0928 23.136 28.1007 23.4895 27.9434C23.9841 27.9276 24.4683 27.8541 24.9343 27.681C25.1201 27.6863 25.2981 27.6338 25.4761 27.5865C25.989 27.4475 26.4995 27.3033 27.0178 27.1826C27.9131 26.9728 28.803 26.7314 29.6746 26.4377C30.2373 26.2488 30.7896 26.0206 31.355 25.8344C32.1533 25.5721 32.9045 25.1865 33.6951 24.9032C33.8103 24.8612 33.894 24.7747 33.97 24.6803C34.5562 24.5543 35.043 24.2081 35.5718 23.9563C35.687 23.9012 35.7549 23.812 35.8047 23.7019Z" fill="#076EB6" fill-opacity="1.000000" fill-rule="nonzero"/>
		<path id="Vector" d="M7.26099 14.8464C7.30005 14.2982 7.31055 13.75 7.25562 13.2018C7.38135 12.8976 7.32642 12.5802 7.32886 12.2679C7.32886 11.8772 7.37085 11.4943 7.42065 11.1086C7.45459 10.8358 7.48608 10.5472 7.4729 10.264C7.44678 9.71057 7.56201 9.17285 7.65625 8.63245C7.68481 8.46191 7.6665 8.28625 7.67188 8.11316C7.75562 8.14453 7.76343 8.08691 7.7583 8.03174C7.75024 7.97937 7.71899 7.96094 7.677 8.00818C7.75562 7.96619 7.76611 7.89014 7.77661 7.81409C7.85767 7.55701 7.94409 7.29993 7.93872 7.02197C7.9519 6.96155 7.9624 6.89868 7.9729 6.83826C8.03052 6.79895 8.02002 6.75171 7.98853 6.7019C8.37329 4.98645 8.99902 3.3811 10.1584 2.03027C10.428 1.71814 10.7422 1.44006 11.0432 1.15674C11.5588 0.674194 12.187 0.427612 12.8728 0.306885C13.9878 0.110229 15.0767 0.275513 16.1367 0.600708C17.1394 0.910278 18.0737 1.38757 18.9663 1.94897C19.9741 2.58105 20.9346 3.27625 21.8403 4.05005C22.2932 4.43823 22.2983 4.43823 22.7722 4.12866C23.6387 3.55688 24.5049 2.98511 25.4001 2.4552C26.8582 1.59485 28.363 0.855103 29.9885 0.354126C31.2529 -0.0367432 32.5225 -0.104858 33.7761 0.196777C34.8911 0.464355 35.7 1.23291 36.2471 2.24792C36.7 3.0874 37.0322 3.98181 37.1841 4.91821C37.2861 5.53992 37.3909 6.16418 37.4434 6.80164C37.5505 8.12878 37.5454 9.45605 37.5088 10.7833C37.4773 11.9165 37.3228 13.0392 37.2549 14.1671C37.2129 14.8569 37.0664 15.5259 37.0322 16.213C37.0088 16.7114 36.8962 17.2072 36.823 17.703C36.7417 18.2433 36.6292 18.7784 36.5847 19.3214C36.5349 19.9247 36.3962 20.507 36.302 21.1024C36.1633 21.9758 35.9749 22.8414 35.8074 23.7097C35.7549 23.8198 35.687 23.9117 35.5745 23.9641C35.0457 24.2159 34.5588 24.5623 33.9724 24.6881C34.0798 24.1819 34.1792 23.673 34.2917 23.1667C34.4568 22.4323 34.6138 21.7004 34.708 20.9529C34.7263 20.9476 34.7629 20.9476 34.7656 20.9398C34.8989 20.2631 35.0745 19.5941 35.0823 18.899C35.2158 18.1515 35.2786 17.396 35.3962 16.6459C35.4932 16.0269 35.4644 15.3894 35.5457 14.7677C35.687 13.6582 35.7209 12.546 35.7444 11.4313C35.7759 9.88367 35.687 8.35181 35.3467 6.83826C35.1738 6.0697 34.9697 5.3064 34.5745 4.61926C34.0615 3.72473 33.3862 3.02441 32.3391 2.74902C31.6665 2.57056 30.9885 2.43164 30.3054 2.53394C28.8264 2.75684 27.4365 3.271 26.0886 3.91882C24.8347 4.51953 23.7275 5.37988 22.4658 5.96216C22.4292 5.98059 22.4058 6.02515 22.3691 6.04883C21.4216 6.6626 20.4609 7.28162 19.3301 7.47046C18.3984 7.62524 18.1575 7.56494 17.5842 6.76489C17.5476 6.7124 17.5164 6.65466 17.4849 6.59705C17.333 6.32153 17.3618 6.27429 17.6863 6.27173C18.8982 6.26123 20.0186 5.92029 21.0864 5.35889C21.3247 5.23303 21.3274 5.14905 21.144 4.97327C20.4897 4.34644 19.804 3.75366 19.0659 3.229C17.9062 2.4054 16.7336 1.62109 15.2363 1.52136C14.48 1.47156 13.8098 1.61316 13.2104 2.05652C12.1714 2.82507 11.6111 3.92151 11.1951 5.10449C10.8599 6.0592 10.6794 7.0481 10.53 8.05017C10.4438 8.63245 10.373 9.21741 10.2893 9.79968C10.1978 10.4344 10.1062 11.0771 10.1008 11.7172C10.0957 12.2181 10.0564 12.7166 10.0039 13.207C9.91235 14.0621 9.93335 14.9199 9.90991 15.7698C9.84692 18.141 9.85229 20.5175 10.0276 22.8861C10.0774 23.5444 10.0879 24.2054 10.1584 24.8586C10.2737 25.9288 10.4255 26.9938 10.5615 28.0613C10.5222 28.1715 10.428 28.1715 10.3442 28.1505C9.56177 27.9617 8.77905 27.7676 7.99634 27.576C7.97534 27.5708 7.95703 27.5603 7.93628 27.5525C7.9519 26.9282 7.7478 26.3196 7.7478 25.7032C7.7478 24.9399 7.55933 24.2029 7.53052 23.4474C7.49658 22.587 7.38647 21.7294 7.34717 20.8689C7.31055 20.0742 7.32642 19.2767 7.32104 18.4794C7.31592 17.4905 7.30811 16.5043 7.21387 15.5179C7.19287 15.2871 7.35767 15.08 7.2688 14.8517L7.26099 14.8464Z" fill="#FFFFFF" fill-opacity="1.000000" fill-rule="nonzero"/>
		<path id="Vector" d="M33.2524 27.0433C33.8701 26.6866 34.5349 26.4348 35.2024 26.1987C35.0637 26.9568 34.8413 27.6913 34.6003 28.4204C34.158 29.7609 33.7339 31.1117 33.2158 32.4205C32.7368 33.6298 32.0981 34.7656 31.3127 35.8096C30.907 36.3499 30.4622 36.8483 29.8967 37.2286C29.2607 37.6588 28.5671 37.8634 27.8105 37.6456C27.198 37.47 26.7244 37.066 26.3342 36.5729C25.7742 35.8699 25.3789 35.0803 25.0728 34.2305C24.6904 33.1603 24.5649 32.0376 24.29 30.9438C24.1802 30.5032 24.1619 30.0388 24.0283 29.5981C24.4785 29.3778 24.9602 29.3333 25.4497 29.3385C25.6301 30.031 25.7585 30.7366 26.0332 31.4028C26.4207 32.3419 26.8447 33.2468 27.6169 33.9524C28.0906 34.3853 28.813 34.422 29.3313 34.1151C30.1062 33.656 30.6296 32.9557 31.0876 32.1976C31.5955 31.3608 32.009 30.4742 32.3677 29.5668C32.6948 28.7352 33.0403 27.9089 33.2549 27.0355L33.2524 27.0433Z" fill="#FFFFFF" fill-opacity="1.000000" fill-rule="nonzero"/>
		<path id="Vector" d="M17.6233 30.2543C18.0498 30.1284 18.4844 30.207 18.9138 30.1913C18.623 31.2012 18.3508 32.2163 18.0396 33.2209C17.7202 34.2544 17.3616 35.2748 16.7517 36.1902C16.1497 37.0925 15.3984 37.7825 14.3018 37.9581C13.5295 38.0814 12.7966 37.9398 12.1213 37.486C11.0586 36.7726 10.425 35.7417 9.88599 34.627C9.49341 33.8137 9.20288 32.9666 8.93311 32.1035C8.68188 31.3009 8.5249 30.4825 8.33911 29.6693C8.32861 29.6248 8.35986 29.5723 8.37305 29.5225C9.26831 29.6641 10.1687 29.769 11.0454 29.9999C11.1555 30.3698 11.2471 30.7448 11.3752 31.1094C11.7888 32.2714 12.3203 33.36 13.3333 34.1338C13.5977 34.3357 13.8699 34.5037 14.2258 34.5272C14.7727 34.564 15.1838 34.3121 15.5503 33.9554C16.1731 33.3468 16.5659 32.5835 16.9402 31.8149C17.1887 31.3062 17.3928 30.7762 17.6179 30.257L17.6233 30.2543Z" fill="#FFFFFF" fill-opacity="1.000000" fill-rule="nonzero"/>
		<path id="Vector" d="M18.4167 28.5334C18.647 27.8856 18.8538 27.2299 19.113 26.5951C19.4714 25.7163 19.9321 24.9006 20.6572 24.2527C21.4138 23.5759 22.3613 23.5681 23.1047 24.2762C23.7224 24.8639 24.1465 25.5773 24.4578 26.3616C24.6306 26.7944 24.7747 27.2404 24.9316 27.681C24.4658 27.8541 23.9814 27.9249 23.4868 27.9434C23.4136 27.4685 23.2458 27.02 23.0942 26.5662C22.8926 25.9656 22.6492 25.3779 22.2383 24.8901C21.7434 24.3025 21.2725 24.3287 20.8325 24.9478C20.5447 25.3518 20.364 25.8081 20.207 26.2725C19.9663 26.986 19.7334 27.702 19.4951 28.4181C19.1548 28.6542 18.7754 28.5046 18.4141 28.5334L18.4167 28.5334Z" fill="#FFFFFF" fill-opacity="1.000000" fill-rule="nonzero"/>
	</g>
	<path id="Vector" d="M163.578 19.038Q163.578 19.0662 163.578 19.0939C163.578 22.3048 160.871 24.5934 158.162 24.9186C156.79 25.0834 155.461 24.9923 154.156 24.5422C154.046 24.5054 153.893 24.5521 153.771 24.5914C150.854 25.5383 147.396 25.049 145.428 22.1639C144.772 21.2021 144.465 20.1179 144.465 19.042C144.465 16.8026 145.796 14.5984 148.088 13.605C149.964 12.7909 151.88 12.781 153.812 13.4525C153.952 13.5017 154.14 13.4746 154.291 13.4279C156.66 12.6925 158.938 12.7834 161.022 14.2075C162.729 15.3752 163.564 17.0125 163.578 19.0355L163.578 19.038ZM96.5718 21.1459L96.5718 13.1746C96.7195 13.1622 96.8645 13.1426 97.0071 13.1426C97.1868 13.1426 97.3669 13.1445 97.5469 13.1464C97.9075 13.1503 98.2686 13.1541 98.6282 13.1426C98.8625 13.1351 98.9133 13.2189 98.9133 13.4254C98.9087 14.396 98.9077 15.3676 98.9077 16.3389C98.9077 16.663 98.908 16.9872 98.908 17.3112C98.9082 17.6351 98.9082 17.9591 98.9082 18.2828C98.9082 18.8057 98.908 19.3285 98.9077 19.8514C98.9072 20.3743 98.907 20.8971 98.907 21.4199C98.907 22.4647 98.9082 23.5096 98.9133 24.5546C98.9133 24.8005 98.8396 24.8767 98.5876 24.8669C98.4077 24.8605 98.2268 24.8652 98.0459 24.8701C97.8123 24.8762 97.5791 24.8824 97.3481 24.8645C97.1826 24.8522 96.9968 24.7291 96.8721 24.6086C95.564 23.3518 94.2634 22.0852 92.9629 20.821C91.7437 19.6356 90.5247 18.4526 89.3054 17.2671C89.196 17.1614 89.0815 17.0654 88.9136 16.9154L88.9136 17.5278C88.9136 18.1121 88.9131 18.6963 88.9128 19.2805C88.9126 19.8647 88.9121 20.449 88.9121 21.0332C88.9121 22.2013 88.9136 23.3693 88.9187 24.5374C88.9187 24.7981 88.8372 24.8718 88.5776 24.8645C88.0151 24.8497 87.4526 24.8447 86.8926 24.8645C86.6152 24.8743 86.5593 24.7783 86.5593 24.5299C86.5625 23.0017 86.5635 21.4734 86.5635 19.9449C86.5635 18.9259 86.563 17.9069 86.5625 16.8877C86.5623 15.8682 86.5618 14.8486 86.5618 13.8287C86.5618 13.1401 86.5669 13.1918 87.2795 13.1254C88.0457 13.0541 88.5674 13.3147 89.0967 13.8459C91.4766 16.2268 93.9045 18.5632 96.3147 20.9146C96.3804 20.978 96.4512 21.0366 96.5718 21.1459ZM128.462 24.8669L126.737 24.8669C126.207 24.8685 125.843 24.6307 125.642 24.1537C125.36 23.4822 125.087 22.8059 124.782 22.1418C124.736 22.0435 124.535 21.9623 124.406 21.9623C122.878 21.95 121.351 21.9475 119.827 21.9574C119.674 21.9581 119.553 21.9542 119.457 21.951C119.264 21.9448 119.166 21.9417 119.098 21.985C118.996 22.0502 118.96 22.2205 118.771 22.6436C118.478 23.3002 118.21 23.9692 117.913 24.6259C117.867 24.7267 117.727 24.8571 117.628 24.8595C117.091 24.8743 116.554 24.8724 115.998 24.8706C115.809 24.87 115.619 24.8694 115.426 24.8694C115.454 24.7587 115.464 24.6825 115.495 24.6135C117.152 20.8727 118.811 17.1318 120.478 13.3934C120.527 13.2827 120.697 13.1573 120.814 13.1525C121.578 13.1302 122.341 13.1302 123.102 13.1525C123.219 13.1549 123.393 13.2853 123.441 13.3959C124.599 16.0078 125.744 18.6272 126.895 21.2441C127.383 22.3558 127.877 23.4625 128.366 24.5742C128.401 24.653 128.422 24.739 128.462 24.8645L128.462 24.8669ZM57.8628 13.177C58.0156 13.1622 58.1301 13.1426 58.2446 13.1426C58.7153 13.1439 59.1865 13.1434 59.6575 13.1428L59.6575 13.1428C60.8826 13.1415 62.1082 13.1401 63.3323 13.1721C64.699 13.209 65.9868 13.5607 67.1399 14.2986C68.9094 15.4305 69.6699 17.05 69.6699 19.0282C69.6699 19.0958 69.6689 19.1638 69.6672 19.2323C69.5781 22.7419 66.7988 24.3333 64.4343 24.7169C63.821 24.8153 63.1924 24.8497 62.5688 24.8571C61.6543 24.8708 60.7407 24.8704 59.8267 24.8698L59.8267 24.8698C59.2783 24.8694 58.7297 24.869 58.1809 24.8718C57.9624 24.8718 57.8628 24.8335 57.8628 24.5956L57.8628 24.5865C57.8655 23.4731 57.8662 22.3599 57.8662 21.2466C57.8662 20.1332 57.8655 19.0199 57.8645 17.9066C57.8638 16.7932 57.8628 15.6799 57.8628 14.5667L57.8628 13.177ZM131.491 18.9764C131.491 18.6051 131.491 18.2338 131.491 17.8624C131.491 17.4911 131.491 17.1198 131.491 16.7484C131.491 15.6367 131.49 14.5249 131.486 13.4131C131.486 13.2286 131.542 13.145 131.733 13.1475L132.305 13.1475C132.816 13.1489 133.328 13.1477 133.839 13.1464C135.098 13.1433 136.357 13.1403 137.615 13.177C138.249 13.1967 138.903 13.3319 139.501 13.5361C141.142 14.0941 141.838 15.2767 141.838 16.859C141.838 16.9993 141.833 17.1428 141.822 17.2893C141.654 19.5668 139.796 20.3882 138.213 20.5259C137.285 20.6057 136.35 20.6035 135.416 20.6013C135.025 20.6005 134.635 20.5996 134.245 20.6046L134.23 20.6049C133.838 20.6095 133.835 20.6095 133.835 21.0129C133.835 22.2008 133.835 23.3888 133.843 24.5767C133.843 24.7931 133.797 24.8817 133.54 24.8718C133.054 24.8534 132.568 24.8606 132.083 24.8677C131.986 24.8691 131.888 24.8706 131.792 24.8718C131.598 24.8718 131.489 24.8406 131.489 24.6094L131.489 24.6013C131.494 23.6642 131.495 22.7272 131.495 21.7898C131.495 21.3212 131.495 20.8525 131.494 20.3838C131.494 19.9148 131.494 19.4457 131.494 18.9764L131.491 18.9764ZM189.706 24.8522L183.855 24.8595C182.656 24.8595 181.457 24.8595 180.261 24.8743C179.976 24.8792 179.907 24.7931 179.907 24.525C179.911 22.915 179.912 21.3052 179.912 19.6952C179.912 17.616 179.909 15.5366 179.902 13.4574C179.902 13.2015 179.994 13.145 180.23 13.145C183.178 13.1525 186.127 13.1598 189.075 13.1549C189.371 13.1549 189.479 13.2336 189.479 13.4861C189.479 13.5088 189.479 13.5327 189.477 13.5582C189.466 13.7406 189.462 13.9237 189.462 14.1102C189.462 14.2433 189.464 14.3779 189.466 14.5153C189.467 14.658 189.469 14.8035 189.469 14.9528L189.105 14.9528C188.625 14.9528 188.144 14.953 187.663 14.9532C185.98 14.9541 184.298 14.955 182.615 14.9453C182.328 14.9453 182.246 15.024 182.246 15.2739C182.246 15.2854 182.246 15.2972 182.246 15.3093C182.255 15.6785 182.259 16.0481 182.259 16.4177C182.259 16.8167 182.254 17.2156 182.246 17.6139C182.246 17.6206 182.246 17.6271 182.246 17.6334C182.246 17.8528 182.332 17.8992 182.557 17.8992C184.271 17.8951 185.987 17.8995 187.702 17.9039C188.044 17.9049 188.386 17.9058 188.729 17.9066C188.8 17.9066 188.874 17.9164 188.999 17.9263C188.999 18.0413 188.999 18.1561 188.999 18.2708C189 18.385 189 18.499 189 18.6129C189 18.9172 188.997 19.2202 188.986 19.5225C188.986 19.584 188.82 19.6897 188.731 19.6897C186.695 19.697 184.659 19.6996 182.623 19.6873C182.35 19.6873 182.246 19.7332 182.246 20.0063C182.246 20.0161 182.246 20.0261 182.246 20.0365C182.255 20.3944 182.258 20.7524 182.258 21.1102C182.258 21.5127 182.254 21.9149 182.25 22.3168C182.249 22.4684 182.248 22.6199 182.246 22.7715C182.246 22.9608 182.264 23.074 182.516 23.074C184.913 23.0665 187.308 23.069 189.705 23.0715L189.706 23.0715L189.706 24.8522ZM82.3547 17.9238C82.3547 18.0396 82.355 18.1549 82.3555 18.2699C82.3557 18.3844 82.356 18.4987 82.356 18.6127C82.356 18.9174 82.3535 19.2203 82.342 19.5225C82.342 19.5815 82.1741 19.6848 82.0823 19.6848C81.5063 19.6943 80.9287 19.6935 80.3508 19.6926C80.1858 19.6924 80.0205 19.6921 79.8555 19.6921C78.5293 19.6921 77.2058 19.6921 75.8799 19.6873C75.7136 19.6873 75.5999 19.6969 75.5999 19.9042L75.5999 19.911C75.6025 20.2638 75.6033 20.6165 75.6033 20.9691C75.6033 21.2126 75.603 21.4562 75.6025 21.6996C75.6023 21.9431 75.6018 22.1866 75.6018 22.4301C75.6018 22.584 75.6021 22.738 75.6025 22.892C75.6025 22.9412 75.6177 22.9904 75.6304 23.0592L83.052 23.0592C83.052 23.1746 83.0522 23.2889 83.0525 23.4026C83.0527 23.5145 83.053 23.6259 83.053 23.7365C83.053 24.0709 83.051 24.4 83.0417 24.7291C83.0417 24.7759 82.9146 24.8522 82.8408 24.8595C82.7185 24.8707 82.5938 24.8684 82.4692 24.8661C82.4021 24.8649 82.335 24.8635 82.2681 24.8645C79.3743 24.8645 76.4805 24.8669 73.5867 24.8743C73.3474 24.8743 73.2559 24.8202 73.2559 24.5643C73.2595 22.71 73.2622 20.8556 73.2622 19.0012C73.2622 17.1467 73.2595 15.2922 73.2532 13.4377C73.2532 13.1444 73.4033 13.1458 73.5906 13.1472C73.6045 13.1473 73.6184 13.1475 73.6326 13.1475L81.3926 13.1475C81.53 13.1475 81.6675 13.1486 81.8054 13.1497C82.0811 13.1519 82.3572 13.1541 82.6321 13.1475C82.8137 13.1427 82.8689 13.2084 82.8689 13.3699L82.8689 13.3811L82.8689 13.3813C82.8645 13.6241 82.8599 13.8668 82.8599 14.1091C82.8599 14.2865 82.8623 14.4637 82.8689 14.6404C82.8694 14.6538 82.8696 14.6667 82.8696 14.6791C82.8696 14.8892 82.7859 14.9528 82.5457 14.9528C81.6096 14.9485 80.6738 14.9484 79.738 14.9482C78.49 14.948 77.2422 14.9479 75.9944 14.938C75.6738 14.9357 75.5942 15.0273 75.5942 15.2964C75.5942 15.3093 75.5945 15.3226 75.5947 15.3364Q75.6101 15.8898 75.6101 16.4432Q75.6101 16.9966 75.5947 17.5499C75.5947 17.5597 75.5945 17.5691 75.5945 17.5782C75.5945 17.8192 75.6616 17.8966 75.9434 17.8943C77.7625 17.8855 79.5815 17.8923 81.4004 17.8992C81.6277 17.9 81.855 17.9009 82.0823 17.9016C82.1536 17.9016 82.2249 17.9115 82.3496 17.9214L82.3547 17.9238ZM176.835 23.0983C176.835 23.2804 176.836 23.46 176.836 23.6379C176.837 23.8134 176.837 23.9872 176.837 24.1602C176.837 24.3348 176.837 24.5087 176.835 24.6825C176.835 24.8669 176.694 24.8669 176.546 24.8669L176.54 24.8669C174.664 24.8619 172.786 24.8595 170.91 24.8619C169.744 24.8619 168.576 24.8619 167.411 24.8743C167.167 24.8766 167.084 24.834 167.084 24.5825C167.084 24.5712 167.084 24.5593 167.085 24.5471C167.099 23.9225 167.102 23.2977 167.102 22.6727C167.102 22.4124 167.102 22.1519 167.101 21.8912C167.1 21.6306 167.1 21.3698 167.1 21.1089C167.1 21.0048 167.1 20.9006 167.1 20.7965C167.1 18.46 167.105 16.1234 167.105 13.7894C167.105 13.5975 167.085 13.4058 167.072 13.1475L167.741 13.1475C167.9 13.1475 168.059 13.1483 168.218 13.1492C168.536 13.1508 168.854 13.1525 169.172 13.1475C169.377 13.1427 169.447 13.2162 169.447 13.4053L169.447 13.4155C169.437 16.4801 169.431 19.5446 169.421 22.6091L169.421 22.6648C169.421 22.8621 169.423 22.9631 169.475 23.0149C169.529 23.0692 169.638 23.0691 169.856 23.0691L169.885 23.069C172.132 23.069 174.379 23.0715 176.629 23.074C176.679 23.074 176.732 23.0861 176.835 23.0983ZM106.531 14.9528L101.83 14.9528L101.83 13.6886C101.83 13.5721 101.827 13.4806 101.827 13.4087C101.827 13.2932 101.834 13.2284 101.87 13.1924C101.916 13.1462 102.01 13.1477 102.199 13.1506C102.253 13.1515 102.314 13.1525 102.385 13.1525L113.133 13.1525C113.161 13.1525 113.189 13.1514 113.217 13.1504C113.297 13.1476 113.377 13.1447 113.448 13.1647C113.517 13.1843 113.617 13.2655 113.617 13.3221C113.624 13.6173 113.625 13.9117 113.625 14.213C113.625 14.3319 113.625 14.4519 113.625 14.5734C113.625 14.6981 113.624 14.8243 113.624 14.9528L113.248 14.9528C112.88 14.9528 112.513 14.9532 112.146 14.9539C111.167 14.9553 110.188 14.9568 109.208 14.9479C108.951 14.9479 108.888 15.024 108.888 15.2627C108.892 17.1002 108.893 18.9387 108.893 20.777C108.893 21.3895 108.893 22.0021 108.893 22.6145C108.893 23.2268 108.893 23.8391 108.893 24.4513L108.893 24.4661C108.893 24.6654 108.892 24.7662 108.842 24.8169C108.79 24.8688 108.685 24.8682 108.475 24.8669C108.367 24.8669 108.26 24.8668 108.152 24.8667C107.719 24.8663 107.286 24.866 106.854 24.8718C106.638 24.8743 106.544 24.8264 106.544 24.5887L106.544 24.5791C106.554 21.4753 106.554 18.3715 106.554 15.2676C106.554 15.1765 106.541 15.0856 106.531 14.9552L106.531 14.9528ZM151.95 23.1237C150.817 21.7445 150.253 20.371 150.253 18.9999C150.253 17.6281 150.818 16.2588 151.941 14.8888C150.625 14.4486 148.793 15.1224 147.816 16.4113C147.261 17.1428 146.985 18.0706 146.985 19.0004C146.985 19.9618 147.28 20.9255 147.869 21.677C148.828 22.9012 150.695 23.5653 151.95 23.1237ZM156.138 14.8815C157.247 16.2684 157.808 17.6469 157.808 19.0216C157.808 20.3916 157.251 21.7581 156.125 23.1256C157.217 23.5609 159.103 22.9608 160.045 21.8639C160.729 21.0665 161.079 20.0217 161.079 18.9822C161.079 18.1332 160.845 17.2877 160.368 16.5834C159.455 15.2356 157.943 14.5444 156.141 14.8839L156.138 14.8815ZM60.2375 14.8765L60.2375 15.5455C60.2324 17.973 60.2297 20.403 60.2246 22.8304L60.2246 22.8535L60.2246 22.8759C60.2246 23.0193 60.2351 23.1399 60.4563 23.1354C60.7881 23.1265 61.1204 23.1243 61.4526 23.1221C62.1172 23.1177 62.7817 23.1133 63.4419 23.0543C64.6506 22.9485 65.6714 22.4296 66.4146 21.4703C66.9946 20.7214 67.1621 19.8662 67.1621 18.9662C67.1621 18.879 67.1606 18.7914 67.1577 18.7035C67.0967 16.9425 65.9385 15.5283 64.1772 15.0831C63.2776 14.8553 62.3665 14.8673 61.4373 14.8794C61.0417 14.8845 60.6428 14.8898 60.24 14.8765L60.2375 14.8765ZM133.835 16.8761L133.838 16.8761L133.835 16.8785C133.835 17.0358 133.835 17.193 133.836 17.3503C133.836 17.5083 133.837 17.6664 133.837 17.8245C133.837 18.0618 133.836 18.299 133.833 18.5363C133.833 18.7035 133.85 18.8191 134.062 18.8141C134.409 18.8082 134.757 18.8062 135.105 18.804C135.923 18.799 136.742 18.7938 137.556 18.7404C137.999 18.7108 138.478 18.5312 138.844 18.2854C139.334 17.9585 139.493 17.4929 139.493 16.9865C139.493 16.7954 139.471 16.5986 139.434 16.4014C139.312 15.7349 138.849 15.3536 138.215 15.1544C137.976 15.0781 137.719 15.0216 137.469 15.0143C136.347 14.9823 135.225 14.9724 134.102 14.9479C133.893 14.943 133.833 15.0208 133.833 15.2067L133.833 15.2184C133.837 15.4397 133.838 15.6611 133.838 15.8826C133.838 16.0486 133.837 16.2145 133.836 16.3805C133.836 16.5457 133.835 16.7109 133.835 16.8761ZM123.914 20.13C123.247 18.5804 122.596 17.0703 121.944 15.5577L121.855 15.5381C121.193 17.0581 120.532 18.578 119.855 20.1274L123.912 20.1274L123.914 20.13ZM154.038 22.0459C154.857 21.3052 155.265 20.1505 155.265 19.0013C155.265 17.8496 154.855 16.7035 154.038 15.9857C153.22 16.6547 152.797 17.8273 152.797 19.0096C152.797 20.1661 153.202 21.332 154.038 22.0459ZM176.835 23.0983L176.835 23.0961L176.838 23.0985L176.835 23.0983Z" fill="#FFFFFF" fill-opacity="1.000000" fill-rule="evenodd"/>
</svg>
